<svg width="300" height="300" viewBox="0 0 300 300" fill="none" xmlns="http://www.w3.org/2000/svg">
<path d="M150 0C179.667 3.53778e-07 208.668 8.79735 233.336 25.2796C258.003 41.7618 277.229 65.1886 288.582 92.5976C299.935 120.006 302.906 150.167 297.118 179.264C291.33 208.361 277.044 235.088 256.066 256.066C235.088 277.044 208.361 291.33 179.263 297.118C150.166 302.906 120.006 299.935 92.5973 288.582C65.1884 277.229 41.7616 258.003 25.2794 233.335C8.79724 208.668 -5.7293e-05 179.667 2.79742e-10 150L150 150V0Z" fill="#D8315B"/>
<path d="M150 0C120.333 -3.53778e-07 91.3318 8.79735 66.6645 25.2796C41.9971 41.7618 22.7712 65.1886 11.4181 92.5975C0.0649254 120.006 -2.90558 150.166 2.88221 179.264C8.66999 208.361 22.9561 235.088 43.934 256.066C64.9119 277.044 91.6393 291.33 120.736 297.118C149.834 302.906 179.994 299.935 207.403 288.582C234.811 277.229 258.238 258.003 274.72 233.336C291.203 208.668 300 179.667 300 150H150V0Z" fill="#10B981"/>
<path d="M150 0C110.218 -4.74401e-07 72.0644 15.8035 43.934 43.934C15.8035 72.0644 3.47789e-06 110.218 0 150C-3.47789e-06 189.782 15.8035 227.936 43.934 256.066C72.0644 284.196 110.218 300 150 300L150 150V0Z" fill="#3B82F6"/>
<path d="M150 0C130.302 -2.349e-07 110.796 3.87986 92.5975 11.4181C74.3986 18.9563 57.8628 30.0052 43.934 43.934C30.0052 57.8628 18.9563 74.3987 11.4181 92.5975C3.87986 110.796 -2.97436e-06 130.302 0 150L150 150V0Z" fill="#FFA000"/>
<path d="M150 75L180.229 119.771L225 150L180.229 180.229L150 225L119.771 180.229L75 150L119.771 119.771L150 75Z" fill="white"/>
</svg>
